# xmcd
#
# Track frame offsets:
#	150
#	10685
#	21892
#	38210
#	55592
#	72145
#	94137
#	106095
#	119307
#	129667
#
# Disc length: 1922 seconds
#
# Revision: 1
# Processed by: cddbd v1.5PL3 Copyright (c) Steve Scherf et al.
# Submitted via: audiograbber 1.81.02
#
DISCID=7707800a
DTITLE=Go West Country Band - Go West Goes South
DYEAR=1900
DGENRE=Country
TTITLE0=Boogie Grass Band
TTITLE1=Never Ending Love
TTITLE2=Blue Eyes Cryin´
TTITLE3=Whatever Gets You
TTITLE4=Arizona Sundown
TTITLE5=Travellin´ Fever
TTITLE6=The Real McCoy
TTITLE7=I Got Mexico
TTITLE8=Why Baby Why
TTITLE9=What Am I Doin´ Hangin´ Round
EXTD=
EXTT0=
EXTT1=
EXTT2=
EXTT3=
EXTT4=
EXTT5=
EXTT6=
EXTT7=
EXTT8=
EXTT9=
PLAYORDER=
